<?xml version="1.0" encoding="UTF-8"?>
<svg width="200px" height="200px" viewBox="0 0 200 200" version="1.1" xmlns="http://www.w3.org/2000/svg" xmlns:xlink="http://www.w3.org/1999/xlink">
    <title>APPicon备份 3@2x</title>
    <defs>
        <linearGradient x1="50%" y1="0%" x2="50%" y2="100%" id="linearGradient-1">
            <stop stop-color="#A5ACFF" offset="0%"></stop>
            <stop stop-color="#545DFF" offset="100%"></stop>
        </linearGradient>
    </defs>
    <g id="APPicon备份-3" stroke="none" stroke-width="1" fill="none" fill-rule="evenodd">
        <g id="编组-3备份-2" fill="url(#linearGradient-1)">
            <rect id="矩形" x="0" y="0" width="200" height="200" rx="4"></rect>
        </g>
        <g id="编组-4备份" transform="translate(11.000000, 11.000000)">
            <polyline id="路径" stroke="#FFFFFF" stroke-width="6" stroke-linecap="round" stroke-linejoin="round" points="104 167 11 167 11 11 167 11 167 96.7728865"></polyline>
            <circle id="椭圆形" fill="#FFFFFF" cx="167" cy="11" r="11"></circle>
            <circle id="椭圆形备份-8" fill="#FFFFFF" cx="11" cy="11" r="11"></circle>
            <circle id="椭圆形备份-9" fill="#FFFFFF" cx="11" cy="167" r="11"></circle>
        </g>
        <path d="M85.9991492,141 L69,141 L69,60 L97.061099,60.0005168 C106.622339,60.0180588 113.008403,60.4807625 115.775763,61.1684309 C120.478388,62.336394 124.240393,64.9067781 127.297375,69.1122872 C130.353887,73.08404 132,78.4580969 132,84.7663606 C132,89.6731387 131.059499,93.8786478 129.413268,97.1497163 C127.767626,100.420785 125.416373,103.224458 122.594751,105.09369 C119.773129,106.962805 116.951625,108.364641 114.130121,108.83192 C110.367998,109.766594 104.724872,110 97.4355156,110 L97.4355156,110 L85.999,110 L85.9991492,141 Z M86,74.2965717 L85.9299926,74.2965717 L85.929,96.849 L95.7229134,96.8497738 C101.895297,96.8497738 106.289281,96.4080944 108.473591,95.739226 L108.655396,95.681343 C110.771288,94.9806587 112.417401,93.5787054 113.828271,91.7095902 C115.239023,89.840475 115.709274,87.7373697 115.709274,85.4009757 C115.709274,82.3637805 114.768772,80.0273866 113.122542,78.1581545 C111.476782,76.2890393 109.125646,75.1206084 106.538915,74.6533297 C104.879206,74.2409217 101.572085,74.1924031 96.7786667,74.186695 L95.8002135,74.1860291 C95.4674884,74.1859339 95.1282054,74.1859339 94.7824121,74.1859339 L86,74.185 L86,74.2965717 Z" id="形状结合" fill="#FFFFFF"></path>
        <g id="编组" transform="translate(158.000000, 153.000000) rotate(65.000000) translate(-158.000000, -153.000000) translate(126.000000, 113.000000)">
            <path d="M32,8 C14.326888,8 0,22.326888 0,40 C0,49.0801087 3.78188139,57.2769117 9.85641113,63.1011759 M32,72 C49.673112,72 64,57.673112 64,40 C64,30.9865538 60.2734449,22.8434911 54.2770078,17.0274853" id="形状备份-2" stroke="#FFFFFF" stroke-width="5" stroke-linecap="round"></path>
            <polygon id="三角形备份-3" fill="#FFFFFF" transform="translate(38.000000, 8.000000) scale(-1, 1) rotate(-90.000000) translate(-38.000000, -8.000000) " points="38 2 46 14 30 14"></polygon>
            <polygon id="三角形备份-4" fill="#FFFFFF" transform="translate(26.000000, 72.000000) rotate(-90.000000) translate(-26.000000, -72.000000) " points="26 66 34 78 18 78"></polygon>
        </g>
    </g>
</svg>