<?xml version="1.0" standalone="no"?><!DOCTYPE svg PUBLIC "-//W3C//DTD SVG 1.1//EN" "http://www.w3.org/Graphics/SVG/1.1/DTD/svg11.dtd"><svg t="1605840513947" class="icon" viewBox="0 0 1036 1024" version="1.1" xmlns="http://www.w3.org/2000/svg" p-id="570" xmlns:xlink="http://www.w3.org/1999/xlink" width="202.34375" height="200"><defs><style type="text/css"></style></defs><path d="M938.74776 69.162438L893.455144 52.837457a67.26383 67.26383 0 1 0-20.007307 64.317969l42.469499 15.465771c28.722146 10.433258 53.516478 49.097686 53.516478 83.466066v598.869028c0 34.000148-24.548843 72.664576-53.639223 82.729601l-38.296195 13.501863a67.26383 67.26383 0 1 0 14.115585 66.650109l46.397313-16.447724c55.60313-19.51633 98.195372-83.711555 98.195373-146.311105V216.210008c0-62.354061-42.960475-126.917519-98.195373-147.293059zM222.16703 888.971053a66.895597 66.895597 0 0 0-52.166292 24.548843L121.516773 897.440403A89.1123 89.1123 0 0 1 67.26383 822.443688V208.722611a89.97151 89.97151 0 0 1 54.252943-76.101414l51.920803-18.657121a67.632063 67.632063 0 1 0-15.465771-65.913643L98.195372 69.285182A157.358084 157.358084 0 0 0 0 208.722611v613.721077a156.253386 156.253386 0 0 0 99.30007 138.332731L159.56748 982.011168a67.509318 67.509318 0 1 0 62.59955-93.040115z" fill="#444444" p-id="571"></path><path d="M426.29066 572.413721l86.780161-205.105584 91.935417 205.105584z m282.311696 230.759125h119.798354l-267.58239-592.854561-98.195372 1.104698-251.625642 592.118096 118.079936-1.350187L380.507068 680.183142h272.492158l55.112153 122.744215z" fill="#444444" p-id="572"></path></svg>